<svg width="2000" height="2000" viewBox="0 0 2000 2000" fill="none" xmlns="http://www.w3.org/2000/svg">
<mask id="mask0" style="mask-type:alpha" maskUnits="userSpaceOnUse" x="104" y="521" width="1793" height="958">
<rect x="104" y="521" width="1793" height="958" fill="url(#paint0_radial)"/>
</mask>
<g mask="url(#mask0)">
<rect x="104" y="521" width="1793" height="958" fill="url(#paint1_radial)"/>
<g filter="url(#filter0_f)">
<circle cx="753" cy="186" r="669" fill="#211D28"/>
</g>
<g filter="url(#filter1_f)">
<circle cx="1411" cy="1759" r="669" fill="#211D28"/>
</g>
<path fill-rule="evenodd" clip-rule="evenodd" d="M201 1383.85H232.292L232.292 1043.88H233.352L430.649 1383.85H466.714L664.542 1043.88H665.602V1383.85H667.724H696.894H972.154H1031.56L1304.17 1383.85H1335.46H1335.99V1043.88H1336.52L1533.82 1383.85H1569.88L1767.71 1043.88H1768.77V1383.85H1800.06V1011H1751.8L1552.38 1353.62H1551.85L1352.43 1011H1335.99H1304.17L1026.25 1011H977.458H696.894H667.724H648.631L449.212 1353.62H448.682L249.263 1011H201L201 1383.85ZM1304.17 1039.64H1026.25H977.458L698.485 1039.64V1176.47L998.673 1176.47H1005.04H1304.17V1039.64ZM1304.17 1204.58H1005.04H998.673L698.485 1204.58V1355.74H972.154H1031.56L1304.17 1355.74V1204.58Z" fill="#211D28"/>
<path fill-rule="evenodd" clip-rule="evenodd" d="M201 616.669H232.292L232.292 956.635H233.352L430.649 616.669H466.714L664.542 956.635H665.602V616.669H667.724H696.894L972.154 616.669H1031.56L1304.17 616.669H1335.46H1335.99V956.635H1336.52L1533.82 616.669H1569.88L1767.71 956.635H1768.77V616.669H1800.06V989.518H1751.8L1552.38 646.9H1551.85L1352.43 989.518H1335.99H1304.17L1026.25 989.518H977.458H696.894H667.724H648.631L449.212 646.9H448.682L249.263 989.518H201L201 616.669ZM1304.17 960.878L1026.25 960.878H977.458H698.485V824.043H998.673H1005.04L1304.17 824.043V960.878ZM1304.17 795.934L1005.04 795.934H998.673H698.485V644.779L972.154 644.779H1031.56L1304.17 644.779V795.934Z" fill="#211D28"/>
<g style="mix-blend-mode:screen">
<rect x="199.5" y="616.5" width="1602" height="767" stroke="#F8FAF4"/>
</g>
<path opacity="0.8" d="M463.6 1256H480.816V1254.3H465.488V1233.5H463.6V1256ZM485.449 1256H507.401V1254.3H487.305V1245.18H505.801V1243.49H487.305V1235.23H507.081V1233.5H485.449V1256ZM522.948 1256H525.092L537.124 1233.5H535.012L524.068 1254.02H524.036L513.028 1233.5H510.916L522.948 1256ZM541.615 1256H563.567V1254.3H543.471V1245.18H561.967V1243.49H543.471V1235.23H563.247V1233.5H541.615V1256ZM568.683 1256H585.899V1254.3H570.571V1233.5H568.683V1256Z" fill="#F8FAF4"/>
<path d="M484.11 1340.38C491.04 1340.38 496.76 1337.02 500.115 1331.52H500.17L500.61 1339H504.46V1317.6H478.225V1321.67H499.785C499.785 1330.03 493.02 1336.3 484.495 1336.3C475.2 1336.3 468.49 1329.26 468.49 1319.64C468.49 1309.85 474.87 1302.92 483.78 1302.92C489.555 1302.92 494.615 1306.66 496.43 1311.94L500.665 1310.56C498.355 1303.74 491.535 1298.85 483.835 1298.85C472.285 1298.85 463.925 1307.59 463.925 1319.64C463.925 1331.63 472.395 1340.38 484.11 1340.38ZM524.729 1310.07C521.209 1310.07 518.239 1312.21 516.699 1315.57H516.644L516.259 1311.23H512.684V1339H516.864V1323.71C516.864 1317.66 519.669 1313.97 524.124 1313.97C527.149 1313.97 529.184 1316.06 529.624 1319.97L533.254 1318.76C532.704 1313.2 529.459 1310.07 524.729 1310.07ZM553.58 1340.1C562.545 1340.1 568.43 1334.16 568.43 1325.14C568.43 1316.06 562.545 1310.12 553.58 1310.12C544.67 1310.12 538.785 1316.06 538.785 1325.14C538.785 1334.16 544.67 1340.1 553.58 1340.1ZM553.58 1336.3C547.145 1336.3 542.965 1331.9 542.965 1325.14C542.965 1318.37 547.145 1313.97 553.58 1313.97C560.015 1313.97 564.195 1318.37 564.195 1325.14C564.195 1331.9 560.015 1336.3 553.58 1336.3ZM586.12 1340.1C590.96 1340.1 594.425 1338.23 596.79 1334.87H596.845L597.23 1339H601.025V1311.23H596.845V1326.9C596.845 1332.56 592.83 1336.47 587.275 1336.47C582.875 1336.47 580.07 1333.44 580.07 1328.71V1311.23H575.835V1329.15C575.835 1336.03 579.74 1340.1 586.12 1340.1ZM624.715 1310.12C619.875 1310.12 616.41 1311.99 614.045 1315.35H613.99L613.605 1311.23H609.81V1339H613.99V1323.32C613.99 1317.66 618.005 1313.75 623.56 1313.75C627.96 1313.75 630.765 1316.78 630.765 1321.51V1339H635V1321.07C635 1314.19 631.095 1310.12 624.715 1310.12ZM656.546 1340.1C661.166 1340.1 665.016 1337.9 667.381 1334.21H667.436L667.821 1339H671.506V1298.57H667.271V1315.9H667.216C664.851 1312.27 661.111 1310.12 656.491 1310.12C648.351 1310.12 642.411 1316.45 642.411 1325.14C642.411 1333.77 648.406 1340.1 656.546 1340.1ZM657.041 1336.3C651.046 1336.3 646.591 1331.52 646.591 1325.14C646.591 1318.81 650.991 1313.97 657.041 1313.97C663.036 1313.97 667.436 1318.81 667.436 1325.14C667.436 1331.41 663.036 1336.3 657.041 1336.3ZM699.162 1339H703.727V1321.62H720.392V1317.71H703.727V1304.29H723.637V1300.22H699.162V1339ZM730.808 1339H734.988V1298.57H730.808V1339ZM757.471 1340.1C766.436 1340.1 772.321 1334.16 772.321 1325.14C772.321 1316.06 766.436 1310.12 757.471 1310.12C748.561 1310.12 742.676 1316.06 742.676 1325.14C742.676 1334.16 748.561 1340.1 757.471 1340.1ZM757.471 1336.3C751.036 1336.3 746.856 1331.9 746.856 1325.14C746.856 1318.37 751.036 1313.97 757.471 1313.97C763.906 1313.97 768.086 1318.37 768.086 1325.14C768.086 1331.9 763.906 1336.3 757.471 1336.3ZM793.696 1340.1C802.661 1340.1 808.546 1334.16 808.546 1325.14C808.546 1316.06 802.661 1310.12 793.696 1310.12C784.786 1310.12 778.901 1316.06 778.901 1325.14C778.901 1334.16 784.786 1340.1 793.696 1340.1ZM793.696 1336.3C787.261 1336.3 783.081 1331.9 783.081 1325.14C783.081 1318.37 787.261 1313.97 793.696 1313.97C800.131 1313.97 804.311 1318.37 804.311 1325.14C804.311 1331.9 800.131 1336.3 793.696 1336.3ZM828.271 1310.07C824.751 1310.07 821.781 1312.21 820.241 1315.57H820.186L819.801 1311.23H816.226V1339H820.406V1323.71C820.406 1317.66 823.211 1313.97 827.666 1313.97C830.691 1313.97 832.726 1316.06 833.166 1319.97L836.796 1318.76C836.246 1313.2 833.001 1310.07 828.271 1310.07Z" fill="white"/>
<path d="M270.25 1340.38C280.04 1340.38 286.695 1331.63 286.695 1319.64C286.695 1307.59 280.04 1298.85 270.25 1298.85C260.405 1298.85 253.75 1307.59 253.75 1319.64C253.75 1331.63 260.405 1340.38 270.25 1340.38ZM270.25 1336.3C263.1 1336.3 258.315 1329.26 258.315 1319.64C258.315 1309.96 263.1 1302.92 270.25 1302.92C277.4 1302.92 282.13 1309.96 282.13 1319.64C282.13 1329.26 277.4 1336.3 270.25 1336.3ZM312.007 1340.38C321.797 1340.38 328.452 1331.63 328.452 1319.64C328.452 1307.59 321.797 1298.85 312.007 1298.85C302.162 1298.85 295.507 1307.59 295.507 1319.64C295.507 1331.63 302.162 1340.38 312.007 1340.38ZM312.007 1336.3C304.857 1336.3 300.072 1329.26 300.072 1319.64C300.072 1309.96 304.857 1302.92 312.007 1302.92C319.157 1302.92 323.887 1309.96 323.887 1319.64C323.887 1329.26 319.157 1336.3 312.007 1336.3ZM353.764 1340.38C363.554 1340.38 370.209 1331.63 370.209 1319.64C370.209 1307.59 363.554 1298.85 353.764 1298.85C343.919 1298.85 337.264 1307.59 337.264 1319.64C337.264 1331.63 343.919 1340.38 353.764 1340.38ZM353.764 1336.3C346.614 1336.3 341.829 1329.26 341.829 1319.64C341.829 1309.96 346.614 1302.92 353.764 1302.92C360.914 1302.92 365.644 1309.96 365.644 1319.64C365.644 1329.26 360.914 1336.3 353.764 1336.3ZM376.944 1339H401.199V1334.93H392.509V1300.22H388.274C386.514 1303.52 383.214 1305.78 378.319 1306.88L379.694 1311.39C383.324 1310.23 386.349 1308.7 387.834 1306.38H387.889V1334.93H376.944V1339Z" fill="white"/>
<path opacity="0.8" d="M265.208 1256.8C271.704 1256.8 275.992 1254.11 275.992 1249.95C275.992 1246.69 273.432 1244.86 267.512 1243.94L261.176 1242.91C257.144 1242.3 255.448 1241.15 255.448 1239.14C255.448 1236.32 258.52 1234.43 263.096 1234.43C267.352 1234.43 270.936 1236.29 272.376 1239.01L273.88 1237.95C272.248 1234.82 268.056 1232.7 263.096 1232.7C257.432 1232.7 253.56 1235.23 253.56 1239.23C253.56 1242.3 255.736 1243.87 260.824 1244.67L267.256 1245.73C272.056 1246.5 274.104 1247.87 274.104 1250.14C274.104 1253.06 270.616 1255.07 265.272 1255.07C259.16 1255.07 254.296 1252.32 253.24 1248.19L251.64 1249.15C253.08 1253.73 258.392 1256.8 265.208 1256.8ZM281.105 1256H303.057V1254.3H282.961V1245.18H301.457V1243.49H282.961V1235.23H302.737V1233.5H281.105V1256ZM306.733 1256H308.749L311.821 1250.34H327.981L331.085 1256H333.069L321.037 1233.5H318.829L306.733 1256ZM312.717 1248.64L319.885 1235.14H319.949L327.117 1248.64H312.717ZM343.494 1256H345.382V1235.23H356.358V1233.5H332.55V1235.23H343.494V1256Z" fill="#F8FAF4"/>
<g style="mix-blend-mode:screen">
<line x1="200" y1="707.5" x2="1801" y2="707.5" stroke="#F8FAF4"/>
</g>
<path d="M275.72 680.2C289.352 680.2 298.52 672.904 298.52 662.152C298.52 651.4 289.352 644.056 275.72 644.056C262.136 644.056 252.92 651.4 252.92 662.152C252.92 672.904 262.136 680.2 275.72 680.2ZM275.72 677.656C263.816 677.656 255.752 671.368 255.752 662.152C255.752 652.936 263.816 646.648 275.72 646.648C287.624 646.648 295.688 652.936 295.688 662.152C295.688 671.368 287.624 677.656 275.72 677.656Z" fill="#F8FAF4"/>
<path d="M305.733 679H308.565V648.136H308.613L337.221 679H341.061V645.256H338.229V676.168H338.181L309.573 645.256H305.733V679Z" fill="#F8FAF4"/>
<path d="M348.738 679H381.666V676.456H351.522V662.776H379.266V660.232H351.522V647.848H381.186V645.256H348.738V679Z" fill="#F8FAF4"/>
<path d="M1440.86 679H1443.7V648.232H1443.79L1461.65 679H1464.91L1482.82 648.232H1482.91V679H1485.74V645.256H1481.38L1463.33 676.264H1463.28L1445.23 645.256H1440.86V679Z" fill="#F8FAF4"/>
<path d="M1493.43 679H1526.36V676.456H1496.22V662.776H1523.96V660.232H1496.22V647.848H1525.88V645.256H1493.43V679Z" fill="#F8FAF4"/>
<path d="M1532.59 679H1565.52V676.456H1535.38V662.776H1563.12V660.232H1535.38V647.848H1565.04V645.256H1532.59V679Z" fill="#F8FAF4"/>
<path d="M1571.75 679H1574.59V648.232H1574.68L1592.54 679H1595.8L1613.71 648.232H1613.8V679H1616.63V645.256H1612.27L1594.22 676.264H1594.17L1576.12 645.256H1571.75V679Z" fill="#F8FAF4"/>
<path d="M1639.97 679H1643.19L1661.23 645.256H1658.07L1641.65 676.024H1641.6L1625.09 645.256H1621.92L1639.97 679Z" fill="#F8FAF4"/>
<path d="M1666.53 679H1669.36V645.256H1666.53V679Z" fill="#F8FAF4"/>
<path d="M1691.31 679H1694.14V647.848H1710.6V645.256H1674.89V647.848H1691.31V679Z" fill="#F8FAF4"/>
<path d="M1716.12 679H1749.05V676.456H1718.9V662.776H1746.65V660.232H1718.9V647.848H1748.57V645.256H1716.12V679Z" fill="#F8FAF4"/>
<path d="M410.5 674C413.815 674 416.995 672.683 419.339 670.339C421.683 667.995 423 664.815 423 661.5C423 658.185 421.683 655.005 419.339 652.661C416.995 650.317 413.815 649 410.5 649L410.5 661.5L410.5 674Z" fill="#B4F2DF"/>
<path d="M1410.5 674C1407.18 674 1404.01 672.683 1401.66 670.339C1399.32 667.995 1398 664.815 1398 661.5C1398 658.185 1399.32 655.005 1401.66 652.661C1404.01 650.317 1407.18 649 1410.5 649L1410.5 661.5L1410.5 674Z" fill="#B4F2DF"/>
</g>
<defs>
<filter id="filter0_f" x="-216" y="-783" width="1938" height="1938" filterUnits="userSpaceOnUse" color-interpolation-filters="sRGB">
<feFlood flood-opacity="0" result="BackgroundImageFix"/>
<feBlend mode="normal" in="SourceGraphic" in2="BackgroundImageFix" result="shape"/>
<feGaussianBlur stdDeviation="150" result="effect1_foregroundBlur"/>
</filter>
<filter id="filter1_f" x="442" y="790" width="1938" height="1938" filterUnits="userSpaceOnUse" color-interpolation-filters="sRGB">
<feFlood flood-opacity="0" result="BackgroundImageFix"/>
<feBlend mode="normal" in="SourceGraphic" in2="BackgroundImageFix" result="shape"/>
<feGaussianBlur stdDeviation="150" result="effect1_foregroundBlur"/>
</filter>
<radialGradient id="paint0_radial" cx="0" cy="0" r="1" gradientUnits="userSpaceOnUse" gradientTransform="translate(987.5 1000) scale(883.5 1653.57)">
<stop offset="0.739583" stop-color="#4A4159"/>
<stop offset="0.963963" stop-color="#211D28"/>
</radialGradient>
<radialGradient id="paint1_radial" cx="0" cy="0" r="1" gradientUnits="userSpaceOnUse" gradientTransform="translate(987.5 1000) scale(883.5 1653.57)">
<stop offset="0.739583" stop-color="#4A4159"/>
<stop offset="0.963963" stop-color="#211D28"/>
</radialGradient>
</defs>
</svg>
